<svg xmlns="http://www.w3.org/2000/svg" width="116.403" height="36.294" viewBox="0 0 116.403 36.294"><defs><style>.a{fill:#fff;}</style></defs><path class="a" d="M227.959,94h0c-4.766,0-8.772-1.453-11.585-4.2-2.872-2.805-4.39-6.871-4.39-11.758a22.7,22.7,0,0,1,1.471-8.248,18.28,18.28,0,0,1,10.593-10.6,22.881,22.881,0,0,1,8.338-1.488l.287,0h.01a22.218,22.218,0,0,1,12.042,3.308l-3.352,7.631a17.823,17.823,0,0,0-6.7-1.236c-5.61,0-9.073,3.4-9.263,9.087-.172,5.148,2.945,8.784,7.94,9.263.751.072,1.5.108,2.216.108a19.678,19.678,0,0,0,8.087-1.67l1.871-13.207h10.247l-1.822,12.831a1.911,1.911,0,0,0,.4,1.533,1.574,1.574,0,0,0,1.21.542,2.374,2.374,0,0,0,2.16-2.074l1.821-12.831h10.248L267.79,85.265a2.06,2.06,0,0,0,.259,1.651,1.348,1.348,0,0,0,1.078.391,8.033,8.033,0,0,0,2.761-.715,16.067,16.067,0,0,1,3.047-12.237,10.165,10.165,0,0,1,7.887-3.911,6.214,6.214,0,0,1,5.335,2.752l1.525-11.052H299.93l-3.26,23.29a1.863,1.863,0,0,0,.275,1.488,1.231,1.231,0,0,0,.97.364,7.912,7.912,0,0,0,3.255-1.11,15.47,15.47,0,0,1-.139-2.1,15.243,15.243,0,0,1,3.25-9.66,10.154,10.154,0,0,1,7.887-3.975A6.218,6.218,0,0,1,317.5,73.2l.3-2.2h10.248l-2.033,14.441a1.665,1.665,0,0,0,.258,1.338,1.339,1.339,0,0,0,1.052.377A4.6,4.6,0,0,0,328.386,87l-.362,4.385a10.551,10.551,0,0,1-6.456,2.6c-2.958,0-5.073-1.281-5.8-3.515a8.923,8.923,0,0,1-7.24,3.515,6.6,6.6,0,0,1-5.642-3.056,21.022,21.022,0,0,1-10.44,3.058l-.217,0c-2.972-.04-5.088-1.321-5.805-3.515a8.926,8.926,0,0,1-7.241,3.515,6.585,6.585,0,0,1-5.576-2.961c-4.3,1.993-7.659,2.961-10.26,2.961-2.984,0-5.06-1.143-5.844-3.218a10.849,10.849,0,0,1-7.58,3.218,6.233,6.233,0,0,1-6.306-4.208,31.945,31.945,0,0,1-14.853,4.208C228.494,94,228.224,94,227.959,94Zm86.664-15.6c-1.961,0-3.557,1.957-3.557,4.362,0,1.9,1,3.175,2.5,3.175,1.928,0,3.557-2,3.557-4.361C317.121,79.71,316.094,78.4,314.623,78.4Zm-29.344,0c-1.961,0-3.557,1.957-3.557,4.362,0,1.9,1,3.175,2.5,3.175,1.928,0,3.557-2,3.557-4.361C287.777,79.71,286.749,78.4,285.278,78.4Z" transform="translate(-211.982 -57.707)"/></svg>