<svg xmlns="http://www.w3.org/2000/svg" xmlns:xlink="http://www.w3.org/1999/xlink" width="88.606" height="130.351" viewBox="0 0 88.606 130.351"><defs><style>.a{fill:#ffebb9;}.b{fill:#e88e8d;}.c{fill:#d9e9f1;}.d{fill:#f1c30f;}.e{isolation:isolate;}.f{clip-path:url(#a);}.g{fill:#393939;}.h{clip-path:url(#b);}.i{fill:#d97375;}.j{clip-path:url(#c);}.k{fill:#bdd9e7;}.l{clip-path:url(#d);}.m{fill:#f39b11;}</style><clipPath id="a"><path class="a" d="M540.807,1005.459l3.949,40.16,36.754-16.659S573.69,1002.505,540.807,1005.459Z"/></clipPath><clipPath id="b"><path class="b" d="M617.659,918.42a23.5,23.5,0,0,1,8.6,32.1l-5.5,9.526a23.5,23.5,0,1,1-40.7-23.5l5.5-9.526A23.5,23.5,0,0,1,617.659,918.42Z"/></clipPath><clipPath id="c"><path class="c" d="M585.307,927.455a139.055,139.055,0,0,1,40.7,23.5l-12.5,21.651-40.7-23.5Z"/></clipPath><clipPath id="d"><path class="d" d="M574.85,945.326a139.045,139.045,0,0,1,40.7,23.5L581.51,1028.96a30.047,30.047,0,0,0-8.526-7.232c-6.562-3.789-14.713.744-14.713.744s.094-9.184-7.065-13.317a29.643,29.643,0,0,0-10.4-3.694Z"/></clipPath></defs><g class="e" transform="translate(-540.807 -915.268)"><path class="a" d="M540.807,1005.459l3.949,40.16,36.754-16.659S573.69,1002.505,540.807,1005.459Z"/><g class="f"><path class="g" d="M542.663,1034.244s5.785.646,13.135,7.583-9.542,7.193-9.542,7.193-8.727-3.884-8.827-4.712,2.091-9.955,2.091-9.955"/></g><path class="b" d="M617.659,918.42a23.5,23.5,0,0,1,8.6,32.1l-5.5,9.526a23.5,23.5,0,1,1-40.7-23.5l5.5-9.526A23.5,23.5,0,0,1,617.659,918.42Z"/><g class="h"><path class="i" d="M618.592,917.8l20.784,12-13.5,23.383-20.785-12Z"/></g><path class="c" d="M585.307,927.455a139.055,139.055,0,0,1,40.7,23.5l-12.5,21.651-40.7-23.5Z"/><g class="j"><path class="k" d="M608.091,935.991l21.651,12.5-13,22.517-21.651-12.5Z"/></g><path class="d" d="M574.85,945.326a139.045,139.045,0,0,1,40.7,23.5L581.51,1028.96a30.047,30.047,0,0,0-8.526-7.232c-6.562-3.789-14.713.744-14.713.744s.094-9.184-7.065-13.317a29.643,29.643,0,0,0-10.4-3.694Z"/><g class="l"><path class="m" d="M602.591,946.445l23.383,13.5-44,76.21-23.383-13.5Z"/></g></g></svg>