<svg xmlns="http://www.w3.org/2000/svg" xmlns:xlink="http://www.w3.org/1999/xlink" width="94.355" height="132.743" viewBox="0 0 94.355 132.743"><defs><style>.a{fill:#d9e9f1;}.b{isolation:isolate;}.c{fill:#396da5;}.d{fill:#477fbb;}.e{fill:#d97375;}.f{fill:#f1c30f;}.g{clip-path:url(#a);}.h{fill:#bedae8;}.i{fill:#d74747;}.j{fill:#f57b71;}.k{fill:#fff;}.l{fill:#5ad1eb;}</style><clipPath id="a"><path class="a" d="M1181.5,920.566a14.883,14.883,0,0,1-.913-3.6c.1-.167.131-.3.077-.289s-.492-.041-.549-.186-.185-.121-.286.053a14.811,14.811,0,0,1-3.567,1.085s-35.111,7.962-50.811,36.715c-17.466,31.987-16.15,53.779-16.15,53.779a6.5,6.5,0,0,0,2.936,5.2l5.781,3.338,3.381,1.951,3.381,1.952,6.139,3.544a6.7,6.7,0,0,0,6.017.011s18.559-10.364,37.527-41.483C1191.543,954.613,1181.5,920.566,1181.5,920.566Z"/></clipPath></defs><g class="b" transform="translate(-1090.077 -916.396)"><path class="c" d="M1138.1,1024a4.883,4.883,0,0,1,1.69,3.574c.083,2.357-.559,17.575-.559,17.575s14.43-17,18.606-22.283a13.128,13.128,0,0,0-2.132-17.858C1149.531,999.708,1138.1,1024,1138.1,1024Z"/><path class="d" d="M1108.958,1007.171a4.883,4.883,0,0,0-3.94.324c-2.082,1.107-14.941,9.272-14.941,9.272s7.507-21,9.994-27.254a13.128,13.128,0,0,1,16.531-7.083C1124.281,985.13,1108.958,1007.171,1108.958,1007.171Z"/><path class="e" d="M1116.079,1012.149l13.856,8a3.5,3.5,0,0,1-3.5,6.062l-13.856-8a3.5,3.5,0,1,1,3.5-6.062Z"/><path class="f" d="M1119.806,1024.693a8,8,0,0,1,2.928,10.929c-2.209,3.826-17.076,13.518-17.076,13.518s1.01-17.692,3.219-21.518A8,8,0,0,1,1119.806,1024.693Z"/><path class="a" d="M1181.5,920.566a14.883,14.883,0,0,1-.913-3.6c.1-.167.131-.3.077-.289s-.492-.041-.549-.186-.185-.121-.286.053a14.811,14.811,0,0,1-3.567,1.085s-35.111,7.962-50.811,36.715c-17.466,31.987-16.15,53.779-16.15,53.779a6.5,6.5,0,0,0,2.936,5.2l5.781,3.338,3.381,1.951,3.381,1.952,6.139,3.544a6.7,6.7,0,0,0,6.017.011s18.559-10.364,37.527-41.483C1191.543,954.613,1181.5,920.566,1181.5,920.566Z"/><g class="g"><path class="h" d="M1181.44,915.94l25.115,14.5-61,105.655-25.115-14.5Z"/><path class="i" d="M1182.952,913.322l15.6,8.982-13,22.517a108.2,108.2,0,0,0-14.616-10.685Z"/><path class="j" d="M1170.935,934.135c-.232-.138-.462-.279-.7-.413a98.52,98.52,0,0,0-16.731-7.4l12.978-22.478,16.466,9.48Z"/></g><path class="k" d="M1160.99,950.361a16.465,16.465,0,1,1-22.491,6.026A16.465,16.465,0,0,1,1160.99,950.361Z"/><path class="l" d="M1159.007,953.795a12.5,12.5,0,1,1-17.075,4.575A12.5,12.5,0,0,1,1159.007,953.795Z"/></g></svg>